<?xml version="1.0" encoding="UTF-8"?>
<!DOCTYPE svg PUBLIC "-//W3C//DTD SVG 1.1//EN" "http://www.w3.org/Graphics/SVG/1.1/DTD/svg11.dtd">
<svg xmlns="http://www.w3.org/2000/svg" version="1.1" width="1390px" height="1390px" style="shape-rendering:geometricPrecision; text-rendering:geometricPrecision; image-rendering:optimizeQuality; fill-rule:evenodd; clip-rule:evenodd" xmlns:xlink="http://www.w3.org/1999/xlink">
<g><path style="opacity:0" fill="#fefefe" d="M -0.5,-0.5 C 462.833,-0.5 926.167,-0.5 1389.5,-0.5C 1389.5,462.833 1389.5,926.167 1389.5,1389.5C 926.167,1389.5 462.833,1389.5 -0.5,1389.5C -0.5,926.167 -0.5,462.833 -0.5,-0.5 Z"/></g>
<g><path style="opacity:1" fill="#0d3c00" d="M 675.5,369.5 C 688.416,367.206 697.582,371.873 703,383.5C 703.169,391.188 703.669,398.855 704.5,406.5C 714.78,407.592 724.78,409.926 734.5,413.5C 737.034,406.758 739.868,400.091 743,393.5C 753.182,381.297 764.515,380.297 777,390.5C 781.123,396.906 782.457,403.906 781,411.5C 779.196,416.58 777.196,421.58 775,426.5C 774.257,428.441 774.424,430.274 775.5,432C 784.787,437.557 793.621,443.723 802,450.5C 810.77,444.189 820.603,441.189 831.5,441.5C 831.334,433.16 831.5,424.827 832,416.5C 838.844,402.994 849.344,399.16 863.5,405C 868.252,408.414 871.419,412.914 873,418.5C 873.286,425.2 873.786,431.867 874.5,438.5C 893.453,438.682 911.953,441.682 930,447.5C 930.772,447.355 931.439,447.022 932,446.5C 934.885,437.179 938.551,428.179 943,419.5C 954.324,409.924 965.324,410.258 976,420.5C 980.073,425.859 981.406,431.859 980,438.5C 976.972,446.722 973.805,454.889 970.5,463C 985.654,472.079 1000.32,481.912 1014.5,492.5C 1019.99,487.515 1025.32,482.348 1030.5,477C 1045.38,467.686 1056.88,470.852 1065,486.5C 1065.95,492.362 1065.29,498.028 1063,503.5C 1057.02,510.317 1050.85,516.984 1044.5,523.5C 1056.79,539.235 1067.46,556.068 1076.5,574C 1082.32,573.102 1088.16,571.935 1094,570.5C 1109.47,572.307 1116.47,580.974 1115,596.5C 1113.76,601.741 1110.93,605.908 1106.5,609C 1101.64,611.16 1096.98,613.494 1092.5,616C 1099.89,642.327 1102.89,669.161 1101.5,696.5C 1112.03,697.636 1122.03,700.469 1131.5,705C 1139.41,713.587 1140.58,723.087 1135,733.5C 1130.6,739.281 1124.77,742.281 1117.5,742.5C 1110.41,741.577 1103.41,740.244 1096.5,738.5C 1093.29,756.636 1087.96,774.136 1080.5,791C 1080.76,792.261 1081.43,793.261 1082.5,794C 1088.95,798.113 1095.11,802.613 1101,807.5C 1110.3,822.409 1107.13,833.909 1091.5,842C 1084.75,843.331 1078.42,842.331 1072.5,839C 1068.24,835.955 1064.08,832.788 1060,829.5C 1050.3,843.54 1039.47,856.706 1027.5,869C 1046.84,898.352 1051.01,929.852 1040,963.5C 1036.22,974.39 1030.89,984.39 1024,993.5C 1019,999.167 1014,1004.83 1009,1010.5C 982.004,1126.49 955.004,1242.49 928,1358.5C 924.391,1368.77 917.891,1376.61 908.5,1382C 764.5,1382.67 620.5,1382.67 476.5,1382C 468.205,1378.37 462.705,1372.2 460,1363.5C 433.003,1243.84 406.003,1124.17 379,1004.5C 346.185,977.506 332.852,942.839 339,900.5C 341.448,889.49 345.281,878.99 350.5,869C 340.737,857.974 331.57,846.474 323,834.5C 309.824,846.034 297.824,845.034 287,831.5C 282.571,821.579 284.071,812.745 291.5,805C 295.344,802.578 299.01,799.911 302.5,797C 295.476,782.095 290.143,766.595 286.5,750.5C 265.449,752.615 255.949,743.282 258,722.5C 262.018,713.733 268.851,708.733 278.5,707.5C 278.833,706.5 279.167,705.5 279.5,704.5C 277.792,688.062 278.459,671.729 281.5,655.5C 281.392,654.558 281.059,653.725 280.5,653C 258.765,649.691 251.931,637.858 260,617.5C 268.23,609.205 277.897,607.205 289,611.5C 295.404,596.017 302.404,580.683 310,565.5C 308.684,561.515 305.851,558.682 301.5,557C 287.781,545.239 287.114,532.906 299.5,520C 306.642,515.745 313.975,515.412 321.5,519C 325.447,521.28 329.113,523.947 332.5,527C 333.5,527.667 334.5,527.667 335.5,527C 342.5,519.333 349.5,511.667 356.5,504C 351.833,498.5 348.333,492.334 346,485.5C 344.16,473.348 348.993,465.182 360.5,461C 366.362,460.048 372.028,460.715 377.5,463C 382.418,467.412 386.751,472.245 390.5,477.5C 401.284,470.699 412.284,464.366 423.5,458.5C 419.924,450.853 418.758,442.853 420,434.5C 427.371,419.071 438.538,415.571 453.5,424C 459.131,430.095 462.464,437.262 463.5,445.5C 477.086,443.178 490.752,441.512 504.5,440.5C 504.8,432.758 505.633,425.092 507,417.5C 512.755,405.043 522.255,400.877 535.5,405C 541.82,407.986 545.987,412.819 548,419.5C 547.774,427.189 547.941,434.856 548.5,442.5C 555.399,444.319 562.399,445.153 569.5,445C 577.649,438.423 586.316,432.59 595.5,427.5C 595.833,426.333 596.167,425.167 596.5,424C 593.987,415.656 593.153,407.156 594,398.5C 601.291,384.404 612.124,380.904 626.5,388C 633.018,394.042 636.351,401.542 636.5,410.5C 644.802,409.382 652.969,407.715 661,405.5C 661.103,397.756 661.769,390.089 663,382.5C 665.353,376.315 669.52,371.982 675.5,369.5 Z"/></g>
<g><path style="opacity:1" fill="#e0e9c6" d="M 666.5,447.5 C 714.927,445.139 755.76,461.473 789,496.5C 836.434,551.261 859.6,615.094 858.5,688C 859.229,747.092 844.229,801.759 813.5,852C 725.833,852.667 638.167,852.667 550.5,852C 528.68,817.842 514.513,780.675 508,740.5C 496.88,669.884 508.213,603.217 542,540.5C 561.603,505.563 589.103,478.73 624.5,460C 638.103,454.073 652.103,449.906 666.5,447.5 Z"/></g>
<g><path style="opacity:1" fill="#0d3c00" d="M 723.5,477.5 C 731.581,476.362 738.747,478.362 745,483.5C 748.333,488.167 751.667,492.833 755,497.5C 759.294,514.589 752.794,524.589 735.5,527.5C 731.179,527.449 727.179,526.282 723.5,524C 717.511,518.346 712.677,511.846 709,504.5C 707.025,491.781 711.858,482.781 723.5,477.5 Z"/></g>
<g><path style="opacity:1" fill="#e0e9c6" d="M 848.5,480.5 C 940.126,478.717 1004.96,519.384 1043,602.5C 1068.15,668.149 1064.48,732.149 1032,794.5C 1024.11,807.059 1015.44,819.059 1006,830.5C 998.802,837.364 991.968,844.53 985.5,852C 944.496,852.833 903.496,852.667 862.5,851.5C 873.053,831.728 881.386,811.061 887.5,789.5C 888.365,788.417 889.365,788.251 890.5,789C 896.046,791.94 901.713,794.606 907.5,797C 927.178,797.994 935.678,788.827 933,769.5C 931.698,765.726 929.531,762.559 926.5,760C 917.504,754.833 908.17,750.333 898.5,746.5C 898.167,745 897.833,743.5 897.5,742C 899.552,729.922 900.552,717.756 900.5,705.5C 912.393,708.903 922.56,706.236 931,697.5C 938.684,679.702 933.184,668.535 914.5,664C 909.845,663.501 905.179,663.334 900.5,663.5C 899.72,651.745 898.553,640.078 897,628.5C 905.259,626.414 913.426,623.914 921.5,621C 932.117,610.999 933.117,600.166 924.5,588.5C 920.301,584.57 915.301,582.57 909.5,582.5C 901.831,583.945 894.164,585.278 886.5,586.5C 883.552,575.766 879.885,565.266 875.5,555C 882.901,550.211 890.068,545.044 897,539.5C 904.801,526.245 902.301,515.412 889.5,507C 884.238,505.561 878.904,505.228 873.5,506C 868.902,508.27 864.569,510.937 860.5,514C 858.956,515.187 857.289,515.52 855.5,515C 849.029,503.888 841.695,493.388 833.5,483.5C 838.591,482.279 843.591,481.279 848.5,480.5 Z"/></g>
<g><path style="opacity:1" fill="#e0e9c6" d="M 500.5,851.5 C 466.004,852.498 431.337,852.832 396.5,852.5C 351.872,814.25 327.039,765.583 322,706.5C 317.538,639.634 338.705,582.467 385.5,535C 425.898,496.92 473.898,479.754 529.5,483.5C 519.174,496.812 509.841,510.812 501.5,525.5C 495.125,520.098 487.792,517.598 479.5,518C 468.548,520.362 462.548,527.195 461.5,538.5C 461.818,546.302 465.151,552.469 471.5,557C 476.311,559.056 480.311,562.056 483.5,566C 478.917,578.247 475.25,590.747 472.5,603.5C 465.851,602.62 459.184,602.454 452.5,603C 440.988,608.19 436.488,617.023 439,629.5C 443.763,640.48 452.263,645.813 464.5,645.5C 463.095,659.119 462.262,672.786 462,686.5C 454.236,687.277 447.07,689.777 440.5,694C 430.625,705.925 431.292,717.259 442.5,728C 449.502,731.574 456.835,732.408 464.5,730.5C 466.558,744.172 468.391,757.839 470,771.5C 461.914,775.252 456.247,781.252 453,789.5C 451.464,801.629 456.297,810.129 467.5,815C 472.954,815.755 478.288,815.255 483.5,813.5C 488.79,826.383 494.456,839.049 500.5,851.5 Z"/></g>
<g><path style="opacity:1" fill="#0d3c00" d="M 621.5,483.5 C 634.503,481.583 643.67,486.583 649,498.5C 649.667,502.167 649.667,505.833 649,509.5C 644.54,519.598 638.707,528.764 631.5,537C 619.375,543.413 609.208,541.247 601,530.5C 598.715,525.04 598.049,519.373 599,513.5C 603.36,503.944 608.86,495.11 615.5,487C 617.727,486.059 619.727,484.892 621.5,483.5 Z"/></g>
<g><path style="opacity:1" fill="#0d3c00" d="M 680.5,516.5 C 701.279,516.99 710.113,527.657 707,548.5C 704.388,562.779 695.888,568.945 681.5,567C 671.352,564.513 665.852,558.013 665,547.5C 662.264,532.97 667.431,522.637 680.5,516.5 Z"/></g>
<g><path style="opacity:1" fill="#0d3c00" d="M 423.5,535.5 C 441.859,534.053 450.693,542.386 450,560.5C 444.283,579.11 432.449,584.943 414.5,578C 402.661,565.96 402.661,553.794 414.5,541.5C 417.427,539.216 420.427,537.216 423.5,535.5 Z"/></g>
<g><path style="opacity:1" fill="#0d3c00" d="M 763.5,542.5 C 773.074,541.078 780.907,544.078 787,551.5C 789.94,557.046 792.606,562.713 795,568.5C 795.34,587.822 785.84,596.322 766.5,594C 762.759,592.262 759.592,589.762 757,586.5C 754.06,580.954 751.394,575.287 749,569.5C 746.556,556.378 751.389,547.378 763.5,542.5 Z"/></g>
<g><path style="opacity:1" fill="#0d3c00" d="M 958.5,555.5 C 967.593,554.694 975.093,557.694 981,564.5C 985.694,571.384 988.861,578.884 990.5,587C 989.333,600.167 982.167,607.333 969,608.5C 960.394,608.034 954.061,604.034 950,596.5C 946.221,590.45 943.721,583.95 942.5,577C 943.12,566.237 948.453,559.07 958.5,555.5 Z"/></g>
<g><path style="opacity:1" fill="#0d3c00" d="M 585.5,564.5 C 598.36,563.34 607.194,568.674 612,580.5C 611.6,592.036 608.934,603.036 604,613.5C 593.84,624.185 582.84,625.185 571,616.5C 567.409,611.976 565.576,606.809 565.5,601C 566.784,591.816 569.284,582.982 573,574.5C 576.465,570.193 580.631,566.859 585.5,564.5 Z"/></g>
<g><path style="opacity:1" fill="#0d3c00" d="M 395.5,586.5 C 411.367,584.402 420.7,591.069 423.5,606.5C 421.845,614.633 419.678,622.633 417,630.5C 410.941,647.282 399.774,652.115 383.5,645C 375.008,637.537 372.508,628.37 376,617.5C 378.47,610.422 381.137,603.422 384,596.5C 386.794,591.866 390.627,588.533 395.5,586.5 Z"/></g>
<g><path style="opacity:1" fill="#0d3c00" d="M 685.5,589.5 C 698.151,587.906 706.985,592.906 712,604.5C 712.942,617.57 712.609,630.57 711,643.5C 702.872,656.574 692.039,659.407 678.5,652C 674.732,648.572 672.232,644.405 671,639.5C 670.333,627.833 670.333,616.167 671,604.5C 673.755,597.396 678.588,592.396 685.5,589.5 Z"/></g>
<g><path style="opacity:1" fill="#0d3c00" d="M 788.5,614.5 C 803.735,612.91 812.902,619.577 816,634.5C 816.821,641.274 818.155,647.94 820,654.5C 822.469,668.069 817.302,677.236 804.5,682C 791.404,684.214 782.904,679.048 779,666.5C 777.59,658.115 775.923,649.782 774,641.5C 771.544,628.402 776.378,619.402 788.5,614.5 Z"/></g>
<g><path style="opacity:1" fill="#0d3c00" d="M 983.5,626.5 C 996.947,625.291 1005.78,630.958 1010,643.5C 1012.66,653.109 1013,662.776 1011,672.5C 1004.16,684.331 994.331,687.831 981.5,683C 976.211,679.936 972.711,675.436 971,669.5C 968.961,659.922 968.295,650.255 969,640.5C 970.439,637.397 972.273,634.564 974.5,632C 977.564,630.141 980.564,628.308 983.5,626.5 Z"/></g>
<g><path style="opacity:1" fill="#0d3c00" d="M 569.5,653.5 C 585.672,652.892 594.339,660.559 595.5,676.5C 594.941,684.496 594.441,692.496 594,700.5C 590.098,713.71 581.265,719.21 567.5,717C 560.242,714.076 555.408,708.909 553,701.5C 552.094,690.441 552.427,679.441 554,668.5C 557.106,661.225 562.272,656.225 569.5,653.5 Z"/></g>
<g><path style="opacity:1" fill="#0d3c00" d="M 380.5,672.5 C 393.671,670.829 402.505,676.163 407,688.5C 407.926,698.907 407.592,709.241 406,719.5C 396.009,733.397 384.343,735.064 371,724.5C 368.806,721.446 367.139,718.112 366,714.5C 365.333,705.167 365.333,695.833 366,686.5C 368.871,679.675 373.704,675.008 380.5,672.5 Z"/></g>
<g><path style="opacity:1" fill="#0d3c00" d="M 688.5,689.5 C 701.029,688.669 709.529,694.003 714,705.5C 714.667,713.833 714.667,722.167 714,730.5C 708.142,744.245 697.975,748.745 683.5,744C 677.673,740.842 674.173,736.008 673,729.5C 672.333,721.167 672.333,712.833 673,704.5C 676.081,697.251 681.247,692.251 688.5,689.5 Z"/></g>
<g><path style="opacity:1" fill="#0d3c00" d="M 985.5,699.5 C 1001.78,698.13 1010.78,705.463 1012.5,721.5C 1011.34,733.805 1008.84,745.805 1005,757.5C 996.304,768.695 985.804,770.528 973.5,763C 968.623,758.214 965.957,752.381 965.5,745.5C 968.165,735.338 969.999,725.004 971,714.5C 974.021,707.647 978.855,702.647 985.5,699.5 Z"/></g>
<g><path style="opacity:1" fill="#0d3c00" d="M 797.5,723.5 C 815.24,721.917 824.574,729.917 825.5,747.5C 824.304,758.824 823.137,770.158 822,781.5C 816.134,795.679 805.968,800.179 791.5,795C 783.791,790.398 780.124,783.565 780.5,774.5C 781.629,762.661 782.629,750.828 783.5,739C 785.945,731.727 790.612,726.56 797.5,723.5 Z"/></g>
<g><path style="opacity:1" fill="#0d3c00" d="M 572.5,739.5 C 587.254,738.43 596.087,745.097 599,759.5C 599.628,765.896 600.628,772.23 602,778.5C 602.388,798.11 592.888,806.277 573.5,803C 567.182,800.557 563.015,796.057 561,789.5C 557.964,777.997 556.63,766.331 557,754.5C 560.106,747.225 565.272,742.225 572.5,739.5 Z"/></g>
<g><path style="opacity:1" fill="#0d3c00" d="M 393.5,745.5 C 402.366,744.518 409.533,747.518 415,754.5C 419.935,767.296 425.268,779.962 431,792.5C 432.321,810.845 423.821,819.678 405.5,819C 400.554,817.28 396.387,814.446 393,810.5C 386.69,797.903 381.356,784.903 377,771.5C 375.887,758.478 381.387,749.812 393.5,745.5 Z"/></g>
<g><path style="opacity:1" fill="#0d3c00" d="M 683.5,774.5 C 696.528,772.595 705.695,777.595 711,789.5C 711.667,797.833 711.667,806.167 711,814.5C 704.538,828.438 694.038,832.605 679.5,827C 675.245,823.734 672.078,819.568 670,814.5C 669.083,805.091 669.416,795.758 671,786.5C 673.744,780.921 677.911,776.921 683.5,774.5 Z"/></g>
<g><path style="opacity:1" fill="#0d3c00" d="M 958.5,783.5 C 970.332,781.263 979.166,785.263 985,795.5C 987.199,801.976 986.865,808.309 984,814.5C 980.919,820.331 977.585,825.998 974,831.5C 965.291,840.292 955.457,841.792 944.5,836C 936.607,829.404 934.107,821.237 937,811.5C 941.042,802.573 946.209,794.406 952.5,787C 954.432,785.541 956.432,784.375 958.5,783.5 Z"/></g>
<g><path style="opacity:1" fill="#0d3c00" d="M 500.5,851.5 C 501.043,851.56 501.376,851.893 501.5,852.5C 466.336,853.83 431.336,853.83 396.5,852.5C 431.337,852.832 466.004,852.498 500.5,851.5 Z"/></g>
<g><path style="opacity:1" fill="#e0e9c6" d="M 384.5,895.5 C 587.834,895.167 791.168,895.5 994.5,896.5C 1005.64,916.319 1006.47,936.653 997,957.5C 991.134,967.703 983.468,976.369 974,983.5C 972.632,986.186 971.299,988.853 970,991.5C 943.46,1107.66 916.294,1223.66 888.5,1339.5C 758.168,1340.5 627.835,1340.83 497.5,1340.5C 471.069,1221.85 444.569,1103.18 418,984.5C 416.324,979.822 413.491,975.989 409.5,973C 400.39,968.889 393.556,962.389 389,953.5C 378.448,934.824 376.948,915.491 384.5,895.5 Z"/></g>
<g><path style="opacity:1" fill="#0d3c00" d="M 456.5,969.5 C 518.834,969.333 581.168,969.5 643.5,970C 659.023,976.895 662.856,988.061 655,1003.5C 651.547,1007.15 647.38,1009.65 642.5,1011C 580.167,1011.67 517.833,1011.67 455.5,1011C 441.031,1003.97 437.198,993.135 444,978.5C 447.346,974.102 451.512,971.102 456.5,969.5 Z"/></g>
<g><path style="opacity:1" fill="#0d3c00" d="M 687.5,971.5 C 696.173,971.334 704.84,971.5 713.5,972C 726.415,977.378 730.915,986.878 727,1000.5C 724.623,1007.55 719.79,1011.71 712.5,1013C 703.5,1013.67 694.5,1013.67 685.5,1013C 671.332,1005.83 667.499,994.996 674,980.5C 677.579,975.815 682.079,972.815 687.5,971.5 Z"/></g>
</svg>
