<?xml version="1.0" encoding="UTF-8"?>
<!DOCTYPE svg PUBLIC "-//W3C//DTD SVG 1.1//EN" "http://www.w3.org/Graphics/SVG/1.1/DTD/svg11.dtd">
<svg xmlns="http://www.w3.org/2000/svg" version="1.1" width="1390px" height="1390px" style="shape-rendering:geometricPrecision; text-rendering:geometricPrecision; image-rendering:optimizeQuality; fill-rule:evenodd; clip-rule:evenodd" xmlns:xlink="http://www.w3.org/1999/xlink">
<g><path style="opacity:0" fill="#fefefe" d="M -0.5,-0.5 C 462.833,-0.5 926.167,-0.5 1389.5,-0.5C 1389.5,462.833 1389.5,926.167 1389.5,1389.5C 1229.17,1389.5 1068.83,1389.5 908.5,1389.5C 917.265,1383.89 923.765,1376.22 928,1366.5C 954.748,1250.09 981.748,1133.76 1009,1017.5C 1042.78,984.398 1053.11,945.064 1040,899.5C 1035.06,887.114 1028.23,875.947 1019.5,866C 1012.08,863.115 1004.41,861.115 996.5,860C 899.501,859.5 802.501,859.333 705.5,859.5C 705.5,802.833 705.5,746.167 705.5,689.5C 717.532,688.861 729.532,687.861 741.5,686.5C 742.051,695.421 744.551,703.754 749,711.5C 755.145,718.088 762.645,720.255 771.5,718C 783.206,713.098 788.039,704.265 786,691.5C 784.911,686.979 783.745,682.479 782.5,678C 799.733,670.912 816.9,663.412 834,655.5C 838.7,661.879 843.033,668.545 847,675.5C 854.737,682.997 863.57,684.497 873.5,680C 881.755,674.322 885.255,666.488 884,656.5C 879.893,648.454 875.393,640.621 870.5,633C 890.189,618.65 908.022,602.15 924,583.5C 928.932,588.435 934.432,592.601 940.5,596C 956.786,598.537 966.119,591.703 968.5,575.5C 968.012,567.833 964.679,561.666 958.5,557C 954.996,555.082 951.663,552.916 948.5,550.5C 964.154,526.189 976.321,500.189 985,472.5C 985.519,471.484 986.353,470.818 987.5,470.5C 995.354,473.105 1003.35,474.605 1011.5,475C 1024.89,471.257 1030.73,462.424 1029,448.5C 1026.3,439.795 1020.46,434.629 1011.5,433C 1006.23,431.712 1000.89,430.878 995.5,430.5C 997.691,412.916 999.025,395.249 999.5,377.5C 999.697,364.905 998.697,352.405 996.5,340C 996.675,338.342 997.342,337.009 998.5,336C 1006.1,335.353 1013.1,333.019 1019.5,329C 1026.02,320.906 1027.19,312.072 1023,302.5C 1018.37,296.016 1012.03,292.683 1004,292.5C 998.483,293.089 992.983,293.755 987.5,294.5C 981.192,271.913 972.525,250.246 961.5,229.5C 965.957,226.099 970.623,222.932 975.5,220C 985.443,208.042 984.777,196.709 973.5,186C 968.223,182.838 962.557,181.838 956.5,183C 950.875,185.479 945.542,188.479 940.5,192C 939.5,192.667 938.5,192.667 937.5,192C 925.477,175.97 911.977,161.136 897,147.5C 896.333,146.833 896.333,146.167 897,145.5C 905.697,138.112 909.363,128.778 908,117.5C 902.349,104.947 892.849,100.447 879.5,104C 877.833,105 876.167,106 874.5,107C 870.657,111.674 866.657,116.174 862.5,120.5C 841.392,106.112 818.725,94.6119 794.5,86C 793.941,85.2753 793.608,84.4419 793.5,83.5C 798.208,62.7046 789.875,52.538 768.5,53C 759.228,56.7705 753.895,63.6039 752.5,73.5C 742.812,72.5901 733.145,71.4235 723.5,70C 710.188,68.9009 696.855,68.4009 683.5,68.5C 684.653,59.4525 682.82,51.1192 678,43.5C 671.504,36.8645 663.671,34.6978 654.5,37C 640.98,43.9046 636.646,54.738 641.5,69.5C 641.291,70.9945 640.624,72.1612 639.5,73C 616.938,76.5566 595.271,83.0566 574.5,92.5C 571.746,87.9923 569.246,83.3257 567,78.5C 561.27,69.3865 553.103,65.8865 542.5,68C 530.541,72.4144 525.708,80.9144 528,93.5C 529.783,99.0675 532.117,104.401 535,109.5C 535.749,110.635 535.583,111.635 534.5,112.5C 523.052,119.306 512.219,126.973 502,135.5C 497.371,129.865 491.871,125.365 485.5,122C 466.493,120.008 457.66,128.508 459,147.5C 461.465,153.637 465.132,158.97 470,163.5C 470.667,164.167 470.667,164.833 470,165.5C 456.113,179.88 443.947,195.546 433.5,212.5C 432.635,213.583 431.635,213.749 430.5,213C 421.072,205.715 411.072,204.715 400.5,210C 388.333,222.117 388.666,233.784 401.5,245C 405.167,247.167 408.833,249.333 412.5,251.5C 403.217,271.348 396.551,292.014 392.5,313.5C 373.209,311.629 363.709,320.296 364,339.5C 367.831,349.331 374.998,354.664 385.5,355.5C 384.533,384.741 386.533,413.741 391.5,442.5C 382.329,443.387 374.496,447.053 368,453.5C 363.181,462.68 363.515,471.68 369,480.5C 374.706,486.272 381.539,488.438 389.5,487C 393.406,485.549 397.406,484.382 401.5,483.5C 402.167,483.833 402.833,484.167 403.5,484.5C 410.789,504.743 419.955,524.076 431,542.5C 431.667,543.5 431.667,544.5 431,545.5C 423.352,550.149 417.018,556.149 412,563.5C 408.76,577.188 413.593,586.688 426.5,592C 437.382,593.062 446.382,589.396 453.5,581C 454.759,580.018 456.092,579.685 457.5,580C 471.741,597.576 487.908,613.076 506,626.5C 506.667,627.5 506.667,628.5 506,629.5C 500.479,635.861 497.812,643.195 498,651.5C 503.245,667.206 513.745,672.372 529.5,667C 531.96,665.542 534.127,663.709 536,661.5C 538.084,657.664 540.417,653.997 543,650.5C 558.231,659.865 574.398,667.198 591.5,672.5C 590.007,677.803 588.507,683.136 587,688.5C 585.219,708.052 594.052,716.886 613.5,715C 619.113,713.718 623.28,710.551 626,705.5C 628.762,698.72 630.595,691.72 631.5,684.5C 642.113,686.269 652.78,687.602 663.5,688.5C 663.5,745.5 663.5,802.5 663.5,859.5C 568.833,859.333 474.166,859.5 379.5,860C 372.453,862.228 365.453,864.562 358.5,867C 348.137,878.561 341.637,892.061 339,907.5C 333.786,943.336 343.119,974.67 367,1001.5C 372.079,1005.25 376.413,1009.58 380,1014.5C 406.668,1133.18 433.335,1251.85 460,1370.5C 463.199,1378.94 468.699,1385.28 476.5,1389.5C 317.5,1389.5 158.5,1389.5 -0.5,1389.5C -0.5,926.167 -0.5,462.833 -0.5,-0.5 Z"/></g>
<g><path style="opacity:1" fill="#0d3c00" d="M 908.5,1389.5 C 764.5,1389.5 620.5,1389.5 476.5,1389.5C 468.699,1385.28 463.199,1378.94 460,1370.5C 433.335,1251.85 406.668,1133.18 380,1014.5C 376.413,1009.58 372.079,1005.25 367,1001.5C 343.119,974.67 333.786,943.336 339,907.5C 341.637,892.061 348.137,878.561 358.5,867C 365.453,864.562 372.453,862.228 379.5,860C 474.166,859.5 568.833,859.333 663.5,859.5C 663.5,802.5 663.5,745.5 663.5,688.5C 652.78,687.602 642.113,686.269 631.5,684.5C 630.595,691.72 628.762,698.72 626,705.5C 623.28,710.551 619.113,713.718 613.5,715C 594.052,716.886 585.219,708.052 587,688.5C 588.507,683.136 590.007,677.803 591.5,672.5C 574.398,667.198 558.231,659.865 543,650.5C 540.417,653.997 538.084,657.664 536,661.5C 534.127,663.709 531.96,665.542 529.5,667C 513.745,672.372 503.245,667.206 498,651.5C 497.812,643.195 500.479,635.861 506,629.5C 506.667,628.5 506.667,627.5 506,626.5C 487.908,613.076 471.741,597.576 457.5,580C 456.092,579.685 454.759,580.018 453.5,581C 446.382,589.396 437.382,593.062 426.5,592C 413.593,586.688 408.76,577.188 412,563.5C 417.018,556.149 423.352,550.149 431,545.5C 431.667,544.5 431.667,543.5 431,542.5C 419.955,524.076 410.789,504.743 403.5,484.5C 402.833,484.167 402.167,483.833 401.5,483.5C 397.406,484.382 393.406,485.549 389.5,487C 381.539,488.438 374.706,486.272 369,480.5C 363.515,471.68 363.181,462.68 368,453.5C 374.496,447.053 382.329,443.387 391.5,442.5C 386.533,413.741 384.533,384.741 385.5,355.5C 374.998,354.664 367.831,349.331 364,339.5C 363.709,320.296 373.209,311.629 392.5,313.5C 396.551,292.014 403.217,271.348 412.5,251.5C 408.833,249.333 405.167,247.167 401.5,245C 388.666,233.784 388.333,222.117 400.5,210C 411.072,204.715 421.072,205.715 430.5,213C 431.635,213.749 432.635,213.583 433.5,212.5C 443.947,195.546 456.113,179.88 470,165.5C 470.667,164.833 470.667,164.167 470,163.5C 465.132,158.97 461.465,153.637 459,147.5C 457.66,128.508 466.493,120.008 485.5,122C 491.871,125.365 497.371,129.865 502,135.5C 512.219,126.973 523.052,119.306 534.5,112.5C 535.583,111.635 535.749,110.635 535,109.5C 532.117,104.401 529.783,99.0675 528,93.5C 525.708,80.9144 530.541,72.4144 542.5,68C 553.103,65.8865 561.27,69.3865 567,78.5C 569.246,83.3257 571.746,87.9923 574.5,92.5C 595.271,83.0566 616.938,76.5566 639.5,73C 640.624,72.1612 641.291,70.9945 641.5,69.5C 636.646,54.738 640.98,43.9046 654.5,37C 663.671,34.6978 671.504,36.8645 678,43.5C 682.82,51.1192 684.653,59.4525 683.5,68.5C 696.855,68.4009 710.188,68.9009 723.5,70C 733.145,71.4235 742.812,72.5901 752.5,73.5C 753.895,63.6039 759.228,56.7705 768.5,53C 789.875,52.538 798.208,62.7046 793.5,83.5C 793.608,84.4419 793.941,85.2753 794.5,86C 818.725,94.6119 841.392,106.112 862.5,120.5C 866.657,116.174 870.657,111.674 874.5,107C 876.167,106 877.833,105 879.5,104C 892.849,100.447 902.349,104.947 908,117.5C 909.363,128.778 905.697,138.112 897,145.5C 896.333,146.167 896.333,146.833 897,147.5C 911.977,161.136 925.477,175.97 937.5,192C 938.5,192.667 939.5,192.667 940.5,192C 945.542,188.479 950.875,185.479 956.5,183C 962.557,181.838 968.223,182.838 973.5,186C 984.777,196.709 985.443,208.042 975.5,220C 970.623,222.932 965.957,226.099 961.5,229.5C 972.525,250.246 981.192,271.913 987.5,294.5C 992.983,293.755 998.483,293.089 1004,292.5C 1012.03,292.683 1018.37,296.016 1023,302.5C 1027.19,312.072 1026.02,320.906 1019.5,329C 1013.1,333.019 1006.1,335.353 998.5,336C 997.342,337.009 996.675,338.342 996.5,340C 998.697,352.405 999.697,364.905 999.5,377.5C 999.025,395.249 997.691,412.916 995.5,430.5C 1000.89,430.878 1006.23,431.712 1011.5,433C 1020.46,434.629 1026.3,439.795 1029,448.5C 1030.73,462.424 1024.89,471.257 1011.5,475C 1003.35,474.605 995.354,473.105 987.5,470.5C 986.353,470.818 985.519,471.484 985,472.5C 976.321,500.189 964.154,526.189 948.5,550.5C 951.663,552.916 954.996,555.082 958.5,557C 964.679,561.666 968.012,567.833 968.5,575.5C 966.119,591.703 956.786,598.537 940.5,596C 934.432,592.601 928.932,588.435 924,583.5C 908.022,602.15 890.189,618.65 870.5,633C 875.393,640.621 879.893,648.454 884,656.5C 885.255,666.488 881.755,674.322 873.5,680C 863.57,684.497 854.737,682.997 847,675.5C 843.033,668.545 838.7,661.879 834,655.5C 816.9,663.412 799.733,670.912 782.5,678C 783.745,682.479 784.911,686.979 786,691.5C 788.039,704.265 783.206,713.098 771.5,718C 762.645,720.255 755.145,718.088 749,711.5C 744.551,703.754 742.051,695.421 741.5,686.5C 729.532,687.861 717.532,688.861 705.5,689.5C 705.5,746.167 705.5,802.833 705.5,859.5C 802.501,859.333 899.501,859.5 996.5,860C 1004.41,861.115 1012.08,863.115 1019.5,866C 1028.23,875.947 1035.06,887.114 1040,899.5C 1053.11,945.064 1042.78,984.398 1009,1017.5C 981.748,1133.76 954.748,1250.09 928,1366.5C 923.765,1376.22 917.265,1383.89 908.5,1389.5 Z"/></g>
<g><path style="opacity:1" fill="#e0e9c6" d="M 672.5,110.5 C 783.056,107.842 866.556,153.508 923,247.5C 963.33,325.272 967.33,404.938 935,486.5C 898.661,566.832 837.828,618.332 752.5,641C 641.889,661.805 551.389,628.638 481,541.5C 433.26,474.478 417.594,400.478 434,319.5C 453.977,239.648 499.81,179.814 571.5,140C 603.427,123.773 637.093,113.94 672.5,110.5 Z"/></g>
<g><path style="opacity:1" fill="#0d3c00" d="M 645.5,139.5 C 666.345,138.504 674.845,148.171 671,168.5C 668.102,176.484 663.602,183.318 657.5,189C 644.612,195.406 634.446,192.573 627,180.5C 623.597,173.368 623.93,166.368 628,159.5C 630.707,154.584 633.541,149.751 636.5,145C 639.298,142.696 642.298,140.862 645.5,139.5 Z"/></g>
<g><path style="opacity:1" fill="#0d3c00" d="M 725.5,143.5 C 732.463,143.211 738.797,145.044 744.5,149C 751.446,157.281 757.612,166.114 763,175.5C 765.9,187.845 761.734,196.679 750.5,202C 740.274,205.369 731.774,202.869 725,194.5C 720.085,187.672 715.419,180.672 711,173.5C 706.998,159.173 711.831,149.173 725.5,143.5 Z"/></g>
<g><path style="opacity:1" fill="#0d3c00" d="M 825.5,182.5 C 835.432,180.864 843.598,183.864 850,191.5C 853.255,197.008 856.255,202.675 859,208.5C 860.714,219.703 856.548,227.869 846.5,233C 836.462,236.63 827.962,234.463 821,226.5C 818.079,221.659 815.412,216.659 813,211.5C 808.986,198.204 813.152,188.537 825.5,182.5 Z"/></g>
<g><path style="opacity:1" fill="#0d3c00" d="M 561.5,187.5 C 579.84,187.337 588.34,196.337 587,214.5C 585.057,220.328 582.724,225.995 580,231.5C 571.631,241.022 561.798,242.856 550.5,237C 540.825,227.966 538.991,217.466 545,205.5C 547.619,196.719 553.119,190.719 561.5,187.5 Z"/></g>
<g><path style="opacity:1" fill="#0d3c00" d="M 609.5,234.5 C 624.811,232.826 633.811,239.493 636.5,254.5C 634.467,266.295 631.967,277.961 629,289.5C 618.438,302.981 606.771,303.981 594,292.5C 590.993,287.978 589.493,282.978 589.5,277.5C 591.138,267.809 592.971,258.142 595,248.5C 597.774,241.557 602.607,236.89 609.5,234.5 Z"/></g>
<g><path style="opacity:1" fill="#0d3c00" d="M 696.5,233.5 C 708.104,233.045 716.27,238.045 721,248.5C 721.667,257.167 721.667,265.833 721,274.5C 715.46,287.983 705.627,292.483 691.5,288C 685.797,284.632 681.963,279.799 680,273.5C 679.087,264.424 679.42,255.424 681,246.5C 684.542,240.157 689.709,235.824 696.5,233.5 Z"/></g>
<g><path style="opacity:1" fill="#0d3c00" d="M 783.5,254.5 C 797.393,253.359 806.56,259.359 811,272.5C 813.993,280.808 816.16,289.308 817.5,298C 815.416,314.396 806.083,321.396 789.5,319C 783.667,316.5 779.5,312.333 777,306.5C 774.333,297.833 771.667,289.167 769,280.5C 767.33,268.171 772.163,259.504 783.5,254.5 Z"/></g>
<g><path style="opacity:1" fill="#0d3c00" d="M 483.5,269.5 C 499.553,267.408 508.886,274.241 511.5,290C 508.742,304.458 506.242,318.958 504,333.5C 493.899,348.777 481.899,350.444 468,338.5C 464.64,333.732 463.14,328.398 463.5,322.5C 464.598,308.244 467.098,294.244 471,280.5C 474.124,275.536 478.291,271.87 483.5,269.5 Z"/></g>
<g><path style="opacity:1" fill="#0d3c00" d="M 864.5,276.5 C 877.38,274.189 886.547,278.856 892,290.5C 895.611,304.721 898.778,319.054 901.5,333.5C 899.568,350.263 890.234,357.429 873.5,355C 866.572,352.406 862.072,347.573 860,340.5C 857.14,326.09 853.973,311.757 850.5,297.5C 851.204,287.806 855.871,280.806 864.5,276.5 Z"/></g>
<g><path style="opacity:1" fill="#0d3c00" d="M 536.5,299.5 C 548.35,298.337 556.85,303.004 562,313.5C 562.667,325.167 562.667,336.833 562,348.5C 557.794,362.028 548.627,367.528 534.5,365C 527.572,362.406 523.072,357.573 521,350.5C 520.333,339.167 520.333,327.833 521,316.5C 523.596,308.408 528.762,302.741 536.5,299.5 Z"/></g>
<g><path style="opacity:1" fill="#0d3c00" d="M 699.5,321.5 C 712.151,319.906 720.985,324.906 726,336.5C 726.899,346.893 726.566,357.227 725,367.5C 719.895,377.542 711.728,381.709 700.5,380C 692.234,377.401 687.068,371.901 685,363.5C 684.333,354.5 684.333,345.5 685,336.5C 688.047,329.622 692.881,324.622 699.5,321.5 Z"/></g>
<g><path style="opacity:1" fill="#0d3c00" d="M 803.5,354.5 C 816.396,353.356 825.23,358.689 830,370.5C 830.667,382.5 830.667,394.5 830,406.5C 824.846,417.994 816.013,422.494 803.5,420C 795.836,417.002 791.003,411.502 789,403.5C 788.333,392.167 788.333,380.833 789,369.5C 791.996,362.672 796.829,357.672 803.5,354.5 Z"/></g>
<g><path style="opacity:1" fill="#0d3c00" d="M 600.5,361.5 C 612.993,359.494 621.826,364.161 627,375.5C 630.097,385.203 630.097,394.87 627,404.5C 619.556,415.424 609.722,418.257 597.5,413C 592.774,409.605 589.607,405.105 588,399.5C 586.377,391.897 585.71,384.231 586,376.5C 589.047,369.622 593.881,364.622 600.5,361.5 Z"/></g>
<g><path style="opacity:1" fill="#0d3c00" d="M 477.5,377.5 C 490.885,375.104 500.052,380.104 505,392.5C 507.039,403.766 508.039,415.099 508,426.5C 503.647,439.769 494.481,444.935 480.5,442C 473.851,438.686 469.351,433.519 467,426.5C 464.492,414.947 463.492,403.28 464,391.5C 466.687,384.981 471.187,380.314 477.5,377.5 Z"/></g>
<g><path style="opacity:1" fill="#0d3c00" d="M 542.5,401.5 C 554.936,399.68 563.77,404.346 569,415.5C 570.688,423.887 572.688,432.221 575,440.5C 576.813,452.701 571.98,461.201 560.5,466C 547.493,468.583 538.66,463.75 534,451.5C 530.696,440.324 528.696,428.991 528,417.5C 530.6,410.07 535.433,404.737 542.5,401.5 Z"/></g>
<g><path style="opacity:1" fill="#0d3c00" d="M 881.5,402.5 C 896.732,402.733 904.732,410.4 905.5,425.5C 906.014,434.179 904.181,442.179 900,449.5C 889.031,460.098 878.031,460.098 867,449.5C 863.469,444.762 861.969,439.429 862.5,433.5C 862.392,425.811 863.892,418.477 867,411.5C 870.768,406.545 875.601,403.545 881.5,402.5 Z"/></g>
<g><path style="opacity:1" fill="#0d3c00" d="M 707.5,426.5 C 719.518,426.03 727.685,431.363 732,442.5C 732.667,453.5 732.667,464.5 732,475.5C 725.372,490.488 714.538,494.655 699.5,488C 695.041,484.886 692.208,480.719 691,475.5C 690.333,463.833 690.333,452.167 691,440.5C 694.593,433.394 700.093,428.727 707.5,426.5 Z"/></g>
<g><path style="opacity:1" fill="#0d3c00" d="M 795.5,456.5 C 811.807,454.497 821.14,461.497 823.5,477.5C 821.424,489.47 818.258,501.136 814,512.5C 806.999,521.051 798.166,523.551 787.5,520C 779.653,515.638 775.653,508.971 775.5,500C 777.396,490.131 779.563,480.298 782,470.5C 784.687,463.981 789.187,459.314 795.5,456.5 Z"/></g>
<g><path style="opacity:1" fill="#0d3c00" d="M 624.5,460.5 C 634.056,459.174 641.889,462.174 648,469.5C 651.815,476.777 654.315,484.444 655.5,492.5C 653.679,509.267 644.345,516.101 627.5,513C 620.618,510.416 616.118,505.583 614,498.5C 604.901,481.938 608.401,469.271 624.5,460.5 Z"/></g>
<g><path style="opacity:1" fill="#0d3c00" d="M 505.5,482.5 C 516.257,480.468 524.757,483.801 531,492.5C 533.528,497.751 535.861,503.084 538,508.5C 539.372,526.795 530.872,535.628 512.5,535C 508.069,533.371 504.236,530.871 501,527.5C 497.727,521.288 494.727,514.954 492,508.5C 490.459,496.578 494.959,487.911 505.5,482.5 Z"/></g>
<g><path style="opacity:1" fill="#0d3c00" d="M 858.5,502.5 C 877.312,501.811 886.145,510.811 885,529.5C 882.667,535.167 880.333,540.833 878,546.5C 866.315,558.429 854.649,558.429 843,546.5C 839.791,540.886 838.791,534.886 840,528.5C 842.068,521.618 844.901,515.118 848.5,509C 851.761,506.548 855.094,504.381 858.5,502.5 Z"/></g>
<g><path style="opacity:1" fill="#0d3c00" d="M 594.5,531.5 C 603.734,530.3 611.567,532.966 618,539.5C 623.835,547.832 629.168,556.499 634,565.5C 634.52,584.311 625.353,592.811 606.5,591C 604.004,589.92 601.67,588.586 599.5,587C 592.886,579.049 587.052,570.549 582,561.5C 577.599,547.964 581.766,537.964 594.5,531.5 Z"/></g>
<g><path style="opacity:1" fill="#0d3c00" d="M 767.5,541.5 C 787.054,540.219 795.888,549.219 794,568.5C 790.273,576.955 786.273,585.288 782,593.5C 773.178,605.487 762.344,607.654 749.5,600C 742.958,593.463 740.791,585.629 743,576.5C 747.937,567.626 752.604,558.626 757,549.5C 759.975,545.952 763.475,543.286 767.5,541.5 Z"/></g>
<g><path style="opacity:1" fill="#0d3c00" d="M 678.5,557.5 C 684.892,556.791 690.892,557.957 696.5,561C 702.819,566.983 707.986,573.816 712,581.5C 713.933,593.054 709.766,601.554 699.5,607C 692.482,609.498 685.816,608.832 679.5,605C 673.904,599.407 669.07,593.24 665,586.5C 661.413,573.01 665.913,563.343 678.5,557.5 Z"/></g>
<g><path style="opacity:1" fill="#e0e9c6" d="M 384.5,902.5 C 587.834,902.167 791.168,902.5 994.5,903.5C 1004.79,921.394 1006.29,940.06 999,959.5C 993.284,971.924 984.951,982.258 974,990.5C 972.632,993.186 971.299,995.853 970,998.5C 943.46,1114.66 916.294,1230.66 888.5,1346.5C 758.168,1347.5 627.835,1347.83 497.5,1347.5C 471.535,1228.71 445.035,1110.04 418,991.5C 415.444,983.79 410.277,978.624 402.5,976C 380.892,955.294 374.892,930.794 384.5,902.5 Z"/></g>
<g><path style="opacity:1" fill="#0d3c00" d="M 456.5,976.5 C 518.834,976.333 581.168,976.5 643.5,977C 657.093,982.685 661.593,992.519 657,1006.5C 654.152,1012.84 649.318,1016.67 642.5,1018C 580.833,1018.67 519.167,1018.67 457.5,1018C 446.979,1015.3 441.312,1008.47 440.5,997.5C 441.388,986.964 446.721,979.964 456.5,976.5 Z"/></g>
<g><path style="opacity:1" fill="#0d3c00" d="M 685.5,978.5 C 694.839,978.334 704.173,978.5 713.5,979C 729.745,987.098 732.912,998.932 723,1014.5C 719.383,1017.56 715.216,1019.39 710.5,1020C 702.167,1020.67 693.833,1020.67 685.5,1020C 670.754,1013.01 666.92,1002.18 674,987.5C 677.183,983.462 681.016,980.462 685.5,978.5 Z"/></g>
</svg>
