<?xml version="1.0" encoding="UTF-8"?>
<!DOCTYPE svg PUBLIC "-//W3C//DTD SVG 1.1//EN" "http://www.w3.org/Graphics/SVG/1.1/DTD/svg11.dtd">
<svg xmlns="http://www.w3.org/2000/svg" version="1.1" width="1390px" height="1390px" style="shape-rendering:geometricPrecision; text-rendering:geometricPrecision; image-rendering:optimizeQuality; fill-rule:evenodd; clip-rule:evenodd" xmlns:xlink="http://www.w3.org/1999/xlink">
<g><path style="opacity:1" fill="#fefefe" d="M -0.5,-0.5 C 462.833,-0.5 926.167,-0.5 1389.5,-0.5C 1389.5,462.833 1389.5,926.167 1389.5,1389.5C 926.167,1389.5 462.833,1389.5 -0.5,1389.5C -0.5,926.167 -0.5,462.833 -0.5,-0.5 Z"/></g>
<g><path style="opacity:1" fill="#020202" d="M 712.5,777.5 C 717.64,778.488 722.974,778.821 728.5,778.5C 728.815,774.629 728.482,770.962 727.5,767.5C 726.31,751.646 728.477,736.312 734,721.5C 742.804,710.399 753.304,708.565 765.5,716C 771.784,721.851 774.284,729.018 773,737.5C 769.584,748.989 768.751,760.655 770.5,772.5C 808.628,764.354 842.128,747.354 871,721.5C 869.307,696.762 874.141,673.429 885.5,651.5C 870.359,643.262 866.859,631.595 875,616.5C 877.892,613.943 881.059,611.776 884.5,610C 891.167,609.333 897.833,609.333 904.5,610C 908.784,611.326 913.117,611.992 917.5,612C 929.386,604.556 941.72,597.889 954.5,592C 985.354,582.191 1015.69,583.525 1045.5,596C 1050.59,597.958 1055.09,600.792 1059,604.5C 1066.57,589.633 1077.74,586.133 1092.5,594C 1099.23,599.63 1101.9,606.797 1100.5,615.5C 1099.6,616.209 1099.26,617.209 1099.5,618.5C 1102.17,618.5 1104.83,618.5 1107.5,618.5C 1121.81,621.753 1127.65,630.753 1125,645.5C 1123.82,649.363 1121.99,652.863 1119.5,656C 1137.73,660.959 1143.23,672.126 1136,689.5C 1131.4,695.45 1125.4,698.783 1118,699.5C 1117.37,768.119 1083.87,810.952 1017.5,828C 959.783,835.219 915.617,814.386 885,765.5C 870.642,776.171 855.475,785.671 839.5,794C 846.333,798.167 851.833,803.667 856,810.5C 858.453,827.035 851.453,836.369 835,838.5C 830.864,838.344 827.031,837.177 823.5,835C 812.758,828.423 803.424,820.257 795.5,810.5C 761.315,819.47 726.648,822.137 691.5,818.5C 690.791,817.596 689.791,817.263 688.5,817.5C 688.171,831.01 688.504,844.344 689.5,857.5C 792.167,857.333 894.834,857.5 997.5,858C 1004.3,859.242 1010.96,860.909 1017.5,863C 1019.96,864.458 1022.13,866.291 1024,868.5C 1053.25,910.334 1053.91,952.667 1026,995.5C 1020.71,1002.46 1015.04,1009.13 1009,1015.5C 981.912,1132.02 954.745,1248.52 927.5,1365C 925.347,1371.64 921.68,1377.3 916.5,1382C 914.099,1384.06 911.433,1385.73 908.5,1387C 764.5,1387.67 620.5,1387.67 476.5,1387C 468.937,1383.77 463.771,1378.27 461,1370.5C 433.464,1250.22 406.13,1129.89 379,1009.5C 346.202,982.534 332.869,947.867 339,905.5C 341.655,893.523 345.989,882.19 352,871.5C 354.167,869.333 356.333,867.167 358.5,865C 365.215,862.872 371.882,860.539 378.5,858C 467.833,857.5 557.166,857.333 646.5,857.5C 646.5,825.167 646.5,792.833 646.5,760.5C 633.178,761.352 619.844,761.518 606.5,761C 596.383,773.454 584.717,784.121 571.5,793C 562.488,799.336 553.155,800.003 543.5,795C 532.108,783.908 531.775,772.574 542.5,761C 547.34,758.081 552.006,754.914 556.5,751.5C 502.566,734.525 457.9,704.192 422.5,660.5C 391.955,700.087 351.621,717.254 301.5,712C 241.749,699.25 206.916,662.75 197,602.5C 195.858,588.285 197.024,574.285 200.5,560.5C 187.109,556.398 181.942,547.398 185,533.5C 190.5,521.997 199.667,517.164 212.5,519C 206.53,503.919 211.197,493.586 226.5,488C 231.482,487.04 236.149,487.873 240.5,490.5C 240.833,490.167 241.167,489.833 241.5,489.5C 236.615,475.976 240.615,466.143 253.5,460C 266.666,457.576 275.666,462.41 280.5,474.5C 329.274,460.76 372.107,471.093 409,505.5C 436.988,536.473 448.321,572.806 443,614.5C 457.438,639.275 476.438,659.942 500,676.5C 500.696,667.651 500.53,658.818 499.5,650C 502.366,635.153 511.366,628.82 526.5,631C 535.542,633.915 540.708,640.082 542,649.5C 544.191,665.24 543.691,680.907 540.5,696.5C 540.833,697.833 541.167,699.167 541.5,700.5C 575.021,714.735 610.021,720.735 646.5,718.5C 646.833,701.487 646.499,684.487 645.5,667.5C 633.514,662.26 623.014,654.927 614,645.5C 606.136,630.243 609.97,619.076 625.5,612C 633.219,610.574 640.052,612.407 646,617.5C 646.5,585.835 646.667,554.168 646.5,522.5C 637.779,522.804 629.112,522.471 620.5,521.5C 615.934,535.577 608.267,547.744 597.5,558C 582.098,566.311 570.931,562.477 564,546.5C 562.909,540.903 563.576,535.57 566,530.5C 570.5,524.667 575,518.833 579.5,513C 552.382,503.284 528.716,488.284 508.5,468C 507.271,467.219 505.938,466.719 504.5,466.5C 454.059,486.721 408.059,479.554 366.5,445C 332.946,410.824 321.613,370.324 332.5,323.5C 320.347,321.681 313.68,314.681 312.5,302.5C 315.18,285.662 324.847,278.996 341.5,282.5C 341.833,282 342.167,281.5 342.5,281C 338.038,266.924 342.704,257.258 356.5,252C 361.36,251.032 366.026,251.532 370.5,253.5C 370.322,232.526 380.656,224.026 401.5,228C 406.408,229.779 410.075,232.946 412.5,237.5C 413.5,237.833 414.5,238.167 415.5,238.5C 466.474,225.996 509.974,238.663 546,276.5C 578.755,318.68 583.755,364.013 561,412.5C 555.27,422.794 548.436,432.294 540.5,441C 570.474,468.272 605.807,481.439 646.5,480.5C 646.5,422.833 646.5,365.167 646.5,307.5C 582.07,291.567 543.903,250.901 532,185.5C 527.629,129.423 547.796,84.5899 592.5,51C 597.372,47.9666 602.372,45.1332 607.5,42.5C 607.51,37.289 607.677,31.9556 608,26.5C 615.528,11.9223 626.695,8.42235 641.5,16C 644.964,19.7675 647.797,23.9342 650,28.5C 652.6,6.61822 664.1,-0.215117 684.5,8C 690.198,13.231 693.365,19.731 694,27.5C 700.151,9.34127 711.985,4.1746 729.5,12C 737.163,19.6608 739.663,28.8275 737,39.5C 782.177,62.1346 809.177,98.468 818,148.5C 823.245,212.181 798.745,260.347 744.5,293C 727.216,302.04 708.882,307.54 689.5,309.5C 689.5,339.833 689.5,370.167 689.5,400.5C 695.026,400.077 700.526,399.411 706,398.5C 720.082,398.601 727.582,405.601 728.5,419.5C 728.251,426.833 725.251,432.666 719.5,437C 709.953,441.209 699.953,443.042 689.5,442.5C 689.5,475.167 689.5,507.833 689.5,540.5C 698.486,539.691 707.486,539.025 716.5,538.5C 715.315,532.425 713.815,526.425 712,520.5C 711.132,502.702 719.632,494.202 737.5,495C 742.446,496.72 746.613,499.554 750,503.5C 753.04,511.026 755.707,518.692 758,526.5C 758.519,527.516 759.353,528.182 760.5,528.5C 782.052,522.389 802.052,513.056 820.5,500.5C 821.614,499.277 821.781,497.944 821,496.5C 797.879,448.76 802.212,403.76 834,361.5C 866.763,324.632 907.596,310.299 956.5,318.5C 959.23,300.95 969.23,294.45 986.5,299C 995.922,304.339 1000.26,312.505 999.5,323.5C 1013.35,317.954 1023.52,321.954 1030,335.5C 1030.17,339.211 1030.67,342.878 1031.5,346.5C 1050.81,344.981 1059.65,353.981 1058,373.5C 1054.92,380.903 1050.09,386.737 1043.5,391C 1063.22,446.432 1051.56,494.099 1008.5,534C 963.835,566.528 916.835,570.195 867.5,545C 861.362,541.028 855.362,536.862 849.5,532.5C 837.296,540.1 824.963,547.433 812.5,554.5C 818.129,558.655 823.795,562.821 829.5,567C 839.434,579.261 838.434,590.595 826.5,601C 819.638,603.886 812.638,604.22 805.5,602C 800.167,598.333 794.833,594.667 789.5,591C 783.267,583.433 776.433,576.6 769,570.5C 743.059,578.078 716.559,582.078 689.5,582.5C 689.333,647.501 689.5,712.501 690,777.5C 697.438,776.447 704.938,776.447 712.5,777.5 Z"/></g>
<g><path style="opacity:1" fill="#fefefe" d="M 665.5,67.5 C 700.351,65.9439 729.518,77.9439 753,103.5C 779.024,136.291 783.691,171.958 767,210.5C 743.503,253.169 707.336,272.002 658.5,267C 619.199,258.773 592.365,235.94 578,198.5C 566.598,157.262 576.431,122.095 607.5,93C 624.348,78.7405 643.681,70.2405 665.5,67.5 Z"/></g>
<g><path style="opacity:1" fill="#fefefe" d="M 444.5,275.5 C 477.624,274.977 503.457,288.31 522,315.5C 530.395,330.811 533.395,347.145 531,364.5C 526.986,396.848 509.819,419.015 479.5,431C 438.031,442.515 405.198,430.681 381,395.5C 362.243,357.043 368.41,323.21 399.5,294C 412.758,283.364 427.758,277.197 444.5,275.5 Z"/></g>
<g><path style="opacity:1" fill="#fefefe" d="M 915.5,359.5 C 951.802,355.407 979.969,368.407 1000,398.5C 1020.07,440.237 1012.24,475.737 976.5,505C 951.808,519.876 925.808,522.543 898.5,513C 857.903,492.636 842.403,460.136 852,415.5C 863.332,385.667 884.499,367 915.5,359.5 Z"/></g>
<g><path style="opacity:1" fill="#fefefe" d="M 311.5,510.5 C 345.914,509.287 372.414,522.954 391,551.5C 408.075,586.742 403.575,618.909 377.5,648C 349.583,671.608 318.583,676.608 284.5,663C 247.424,642.002 233.257,610.502 242,568.5C 253.867,535.454 277.034,516.121 311.5,510.5 Z"/></g>
<g><path style="opacity:1" fill="#5f5f5f" d="M 1100.5,615.5 C 1102.51,617.083 1104.84,618.083 1107.5,618.5C 1104.83,618.5 1102.17,618.5 1099.5,618.5C 1099.26,617.209 1099.6,616.209 1100.5,615.5 Z"/></g>
<g><path style="opacity:1" fill="#fdfdfd" d="M 984.5,627.5 C 1019.34,626.004 1046.18,639.67 1065,668.5C 1080.65,699.961 1078.31,729.961 1058,758.5C 1024.5,792.24 987.334,796.74 946.5,772C 920.6,751.687 910.1,725.187 915,692.5C 922.075,662.869 939.908,642.703 968.5,632C 973.956,630.473 979.289,628.973 984.5,627.5 Z"/></g>
<g><path style="opacity:1" fill="#9e9e9e" d="M 727.5,767.5 C 728.482,770.962 728.815,774.629 728.5,778.5C 722.974,778.821 717.64,778.488 712.5,777.5C 717.5,777.5 722.5,777.5 727.5,777.5C 727.5,774.167 727.5,770.833 727.5,767.5 Z"/></g>
<g><path style="opacity:1" fill="#616161" d="M 691.5,818.5 C 689.519,831.124 688.852,844.124 689.5,857.5C 688.504,844.344 688.171,831.01 688.5,817.5C 689.791,817.263 690.791,817.596 691.5,818.5 Z"/></g>
<g><path style="opacity:1" fill="#fefefe" d="M 384.5,900.5 C 587.5,900.333 790.5,900.5 993.5,901C 1000.3,910.336 1003.63,920.836 1003.5,932.5C 1002.9,956.035 993.066,974.702 974,988.5C 972.667,991.167 971.333,993.833 970,996.5C 943.46,1112.66 916.293,1228.66 888.5,1344.5C 758.168,1345.5 627.835,1345.83 497.5,1345.5C 471.536,1226.72 445.036,1108.05 418,989.5C 417,987.5 416,985.5 415,983.5C 409.437,978.637 403.604,974.137 397.5,970C 379.763,949.345 375.43,926.179 384.5,900.5 Z"/></g>
<g><path style="opacity:1" fill="#000000" d="M 456.5,974.5 C 518.501,974.333 580.501,974.5 642.5,975C 659.284,981.346 663.451,992.513 655,1008.5C 651.547,1012.15 647.38,1014.65 642.5,1016C 580.167,1016.67 517.833,1016.67 455.5,1016C 441.031,1008.97 437.198,998.135 444,983.5C 447.346,979.102 451.512,976.102 456.5,974.5 Z"/></g>
<g><path style="opacity:1" fill="#020202" d="M 687.5,976.5 C 696.173,976.334 704.84,976.5 713.5,977C 728.011,983.211 732.178,993.711 726,1008.5C 722.583,1013.79 717.75,1016.96 711.5,1018C 703.167,1018.67 694.833,1018.67 686.5,1018C 673.128,1012.9 668.295,1003.4 672,989.5C 675.266,982.721 680.433,978.388 687.5,976.5 Z"/></g>
</svg>
