<?xml version="1.0" encoding="UTF-8"?>
<!DOCTYPE svg PUBLIC "-//W3C//DTD SVG 1.1//EN" "http://www.w3.org/Graphics/SVG/1.1/DTD/svg11.dtd">
<svg xmlns="http://www.w3.org/2000/svg" version="1.1" width="1390px" height="1390px" style="shape-rendering:geometricPrecision; text-rendering:geometricPrecision; image-rendering:optimizeQuality; fill-rule:evenodd; clip-rule:evenodd" xmlns:xlink="http://www.w3.org/1999/xlink">
<g><path style="opacity:1" fill="#fefefe" d="M -0.5,-0.5 C 462.833,-0.5 926.167,-0.5 1389.5,-0.5C 1389.5,462.833 1389.5,926.167 1389.5,1389.5C 926.167,1389.5 462.833,1389.5 -0.5,1389.5C -0.5,926.167 -0.5,462.833 -0.5,-0.5 Z"/></g>
<g><path style="opacity:1" fill="#010101" d="M 528.5,382.5 C 528.56,383.043 528.893,383.376 529.5,383.5C 530.499,373.522 530.832,363.522 530.5,353.5C 534.655,255.93 565.822,168.263 624,90.5C 638.401,73.0948 653.901,56.5948 670.5,41C 674.984,36.9225 679.984,33.5891 685.5,31C 692.324,29.9557 698.657,31.289 704.5,35C 741.987,77.4264 771.821,124.926 794,177.5C 825.734,255.107 844.568,335.773 850.5,419.5C 903.924,367.004 937.758,303.67 952,229.5C 957.906,201.67 959.573,173.67 957,145.5C 963.114,131.36 973.614,126.193 988.5,130C 996.289,133.796 1001.12,139.962 1003,148.5C 1071.2,237.139 1100.2,337.472 1090,449.5C 1086.17,483.136 1079.34,516.136 1069.5,548.5C 1140.81,537.219 1208.15,548.719 1271.5,583C 1280.15,591.364 1281.65,600.864 1276,611.5C 1272.13,615.702 1267.97,619.535 1263.5,623C 1184.96,638.33 1121.8,677.83 1074,741.5C 1047.63,777.915 1028.46,817.915 1016.5,861.5C 1047.54,895.547 1054.37,934.214 1037,977.5C 1029.87,992.087 1020.54,1005.09 1009,1016.5C 981.842,1132.8 954.842,1249.13 928,1365.5C 924.345,1374.48 918.511,1381.65 910.5,1387C 765.889,1388.66 621.222,1389 476.5,1388C 467.32,1383.15 461.487,1375.65 459,1365.5C 432.493,1247.14 405.826,1128.81 379,1010.5C 348.455,985.907 334.788,953.907 338,914.5C 339.813,899.061 344.813,884.728 353,871.5C 357.14,866.013 362.64,863.013 369.5,862.5C 351.301,776.883 306.301,709.383 234.5,660C 191.726,632.964 145.059,617.297 94.5,613C 88.5082,610.341 84.6748,605.841 83,599.5C 79.896,586.024 83.7293,575.191 94.5,567C 169.687,517.343 251.687,500.843 340.5,517.5C 307.51,398.115 325.343,287.115 394,184.5C 415.753,154.079 441.587,127.579 471.5,105C 477.199,100.818 483.199,97.1516 489.5,94C 498.038,92.8418 506.371,93.5085 514.5,96C 523.595,101.696 527.095,109.863 525,120.5C 492.624,208.289 493.791,295.623 528.5,382.5 Z"/></g>
<g><path style="opacity:1" fill="#fdfdfd" d="M 703.5,858.5 C 677.995,858.831 652.661,858.498 627.5,857.5C 660.878,778.266 668.378,696.599 650,612.5C 636.558,557.961 613.225,508.294 580,463.5C 560.849,359.744 575.516,261.077 624,167.5C 641.441,135.714 663.107,107.048 689,81.5C 726.385,129.59 754.385,182.924 773,241.5C 806.637,347.871 817.304,456.538 805,567.5C 796.911,642.523 777.578,714.523 747,783.5C 734.493,809.873 719.993,834.873 703.5,858.5 Z"/></g>
<g><path style="opacity:1" fill="#fdfdfd" d="M 466.5,164.5 C 467.124,164.917 467.457,165.584 467.5,166.5C 449.433,258.866 461.933,346.866 505,430.5C 511.499,442.168 518.499,453.502 526,464.5C 540.104,481.937 553.438,499.937 566,518.5C 616.9,603.301 630.067,693.634 605.5,789.5C 584.059,698.2 535.892,624.867 461,569.5C 441.228,522.21 431.561,472.876 432,421.5C 428.019,406.917 418.519,401.084 403.5,404C 396.609,406.623 392.109,411.456 390,418.5C 389.765,438.549 390.765,458.549 393,478.5C 396.265,498.322 400.098,517.988 404.5,537.5C 400.198,536.021 395.865,534.521 391.5,533C 368.373,474.424 361.539,413.924 371,351.5C 383.328,278.838 415.161,216.505 466.5,164.5 Z"/></g>
<g><path style="opacity:1" fill="#030303" d="M 707.5,204.5 C 716.144,203.324 723.31,205.991 729,212.5C 733.606,221.378 737.939,230.378 742,239.5C 745.174,251.971 741.007,261.138 729.5,267C 719.03,270.177 710.53,267.343 704,258.5C 700,249.833 696,241.167 692,232.5C 689.106,218.616 694.273,209.283 707.5,204.5 Z"/></g>
<g><path style="opacity:1" fill="#fdfdfd" d="M 789.5,858.5 C 777.988,858.828 766.654,858.495 755.5,857.5C 804.761,771.882 834.928,679.882 846,581.5C 849.969,545.274 852.135,508.941 852.5,472.5C 892.039,442.465 923.873,405.798 948,362.5C 973.263,316.378 989.929,267.378 998,215.5C 1042.96,293.941 1058.63,377.941 1045,467.5C 1040.12,497.667 1032.12,527 1021,555.5C 1020.67,557.833 1020.33,560.167 1020,562.5C 1015.06,564.203 1010.23,566.203 1005.5,568.5C 1006.15,561.544 1007.65,554.544 1010,547.5C 1020.19,504.751 1025.19,461.418 1025,417.5C 1021.1,404.29 1012.26,398.79 998.5,401C 991.667,403.833 986.833,408.667 984,415.5C 982.717,471.49 973.717,526.156 957,579.5C 956.137,584.827 955.303,590.161 954.5,595.5C 900.796,631.368 859.296,678.034 830,735.5C 810.163,774.555 796.663,815.555 789.5,858.5 Z"/></g>
<g><path style="opacity:1" fill="#030303" d="M 413.5,299.5 C 428.562,298.408 437.228,305.242 439.5,320C 437.685,332.411 434.851,344.578 431,356.5C 419.278,368.489 407.611,368.489 396,356.5C 393.581,352.156 392.414,347.49 392.5,342.5C 394.169,333.486 396.003,324.486 398,315.5C 400.711,307.624 405.878,302.291 413.5,299.5 Z"/></g>
<g><path style="opacity:1" fill="#020202" d="M 749.5,325.5 C 761.797,324.226 770.297,329.226 775,340.5C 801.472,459.492 793.805,576.159 752,690.5C 745.415,708.334 737.748,725.668 729,742.5C 712.989,754.323 700.656,751.323 692,733.5C 691.333,730.167 691.333,726.833 692,723.5C 748.459,602.639 762.292,476.972 733.5,346.5C 734.348,335.996 739.681,328.996 749.5,325.5 Z"/></g>
<g><path style="opacity:1" fill="#020202" d="M 995.5,334.5 C 1015.88,333.881 1025.55,343.881 1024.5,364.5C 1023.92,381.242 1015.26,389.075 998.5,388C 990.667,385.5 985.5,380.333 983,372.5C 981.735,364.531 981.402,356.531 982,348.5C 984.687,341.981 989.187,337.314 995.5,334.5 Z"/></g>
<g><path style="opacity:1" fill="#2b2b2b" d="M 530.5,353.5 C 530.832,363.522 530.499,373.522 529.5,383.5C 528.893,383.376 528.56,383.043 528.5,382.5C 529.167,372.833 529.833,363.167 530.5,353.5 Z"/></g>
<g><path style="opacity:1" fill="#fdfdfd" d="M 571.5,850.5 C 571.5,853.167 571.5,855.833 571.5,858.5C 561.167,858.5 550.833,858.5 540.5,858.5C 525.293,774.581 488.293,702.081 429.5,641C 423.833,636 418.167,631 412.5,626C 398.029,618.494 387.195,621.994 380,636.5C 378.939,642.724 379.606,648.724 382,654.5C 442.648,708.766 480.815,776.099 496.5,856.5C 468.853,858.492 440.853,859.158 412.5,858.5C 390.539,755.334 335.539,675.167 247.5,618C 219.355,601.264 189.355,588.931 157.5,581C 187.256,565.641 218.922,556.641 252.5,554C 360.47,549.74 446.304,590.907 510,677.5C 546.445,729.326 566.945,786.993 571.5,850.5 Z"/></g>
<g><path style="opacity:1" fill="#030303" d="M 323.5,576.5 C 328.913,576.229 334.246,576.729 339.5,578C 349.793,582.644 359.293,588.477 368,595.5C 375.686,611.111 371.519,622.278 355.5,629C 352.5,629.667 349.5,629.667 346.5,629C 337.864,624.682 329.198,620.349 320.5,616C 308.416,607.219 306.249,596.385 314,583.5C 317.068,580.917 320.235,578.584 323.5,576.5 Z"/></g>
<g><path style="opacity:1" fill="#fdfdfd" d="M 895.5,858.5 C 874.473,859.155 853.806,858.488 833.5,856.5C 849.654,770.316 891.321,699.482 958.5,644C 1030.05,589.756 1109.39,574.09 1196.5,597C 1113.47,630.365 1050.97,686.532 1009,765.5C 993.377,794.908 981.543,825.741 973.5,858C 962.152,858.832 950.819,858.666 939.5,857.5C 954.234,811.702 975.067,769.036 1002,729.5C 1008.33,717.427 1006.17,707.26 995.5,699C 986.714,695.093 978.381,695.76 970.5,701C 936.282,748.943 911.282,801.443 895.5,858.5 Z"/></g>
<g><path style="opacity:1" fill="#020202" d="M 1043.5,623.5 C 1060.83,623.657 1068.99,632.323 1068,649.5C 1067.04,652.377 1065.71,655.044 1064,657.5C 1056.83,664.667 1049.67,671.833 1042.5,679C 1027.33,687.386 1015.83,683.886 1008,668.5C 1006.54,661.532 1007.87,655.199 1012,649.5C 1018.83,642.667 1025.67,635.833 1032.5,629C 1035.99,626.588 1039.66,624.755 1043.5,623.5 Z"/></g>
<g><path style="opacity:1" fill="#4f4f4f" d="M 496.5,856.5 C 497.404,857.209 497.737,858.209 497.5,859.5C 468.995,859.831 440.662,859.498 412.5,858.5C 440.853,859.158 468.853,858.492 496.5,856.5 Z"/></g>
<g><path style="opacity:1" fill="#535353" d="M 571.5,850.5 C 572.477,853.287 572.81,856.287 572.5,859.5C 561.654,859.828 550.987,859.494 540.5,858.5C 550.833,858.5 561.167,858.5 571.5,858.5C 571.5,855.833 571.5,853.167 571.5,850.5 Z"/></g>
<g><path style="opacity:1" fill="#444444" d="M 627.5,857.5 C 652.661,858.498 677.995,858.831 703.5,858.5C 677.997,859.829 652.33,859.829 626.5,858.5C 626.624,857.893 626.957,857.56 627.5,857.5 Z"/></g>
<g><path style="opacity:1" fill="#444444" d="M 755.5,857.5 C 766.654,858.495 777.988,858.828 789.5,858.5C 777.993,859.824 766.327,859.824 754.5,858.5C 754.624,857.893 754.957,857.56 755.5,857.5 Z"/></g>
<g><path style="opacity:1" fill="#444444" d="M 833.5,856.5 C 853.806,858.488 874.473,859.155 895.5,858.5C 874.673,859.497 853.673,859.831 832.5,859.5C 832.263,858.209 832.596,857.209 833.5,856.5 Z"/></g>
<g><path style="opacity:1" fill="#fefefe" d="M 384.5,901.5 C 587.834,901.167 791.168,901.5 994.5,902.5C 1007.63,927.407 1006.13,951.407 990,974.5C 985.301,979.534 980.301,984.2 975,988.5C 973.065,991.371 971.399,994.371 970,997.5C 943.46,1113.66 916.294,1229.66 888.5,1345.5C 758.168,1346.5 627.835,1346.83 497.5,1346.5C 471.54,1227.76 445.04,1109.09 418,990.5C 416.587,987.339 414.92,984.339 413,981.5C 396.099,972.413 385.432,958.413 381,939.5C 378.223,926.43 379.389,913.764 384.5,901.5 Z"/></g>
<g><path style="opacity:1" fill="#000000" d="M 456.5,975.5 C 519.168,975.333 581.834,975.5 644.5,976C 660.265,983.968 663.432,995.468 654,1010.5C 650.444,1014.52 645.944,1016.69 640.5,1017C 578.833,1017.67 517.167,1017.67 455.5,1017C 441.031,1009.97 437.198,999.135 444,984.5C 447.346,980.102 451.512,977.102 456.5,975.5 Z"/></g>
<g><path style="opacity:1" fill="#020202" d="M 687.5,977.5 C 695.84,977.334 704.173,977.5 712.5,978C 729.571,985.003 733.237,996.503 723.5,1012.5C 720.225,1015.97 716.225,1018.14 711.5,1019C 703.167,1019.67 694.833,1019.67 686.5,1019C 674.323,1014.82 669.157,1006.32 671,993.5C 673.786,985.211 679.286,979.878 687.5,977.5 Z"/></g>
</svg>
