<?xml version="1.0" encoding="UTF-8"?>
<!DOCTYPE svg PUBLIC "-//W3C//DTD SVG 1.1//EN" "http://www.w3.org/Graphics/SVG/1.1/DTD/svg11.dtd">
<svg xmlns="http://www.w3.org/2000/svg" version="1.1" width="1390px" height="1390px" style="shape-rendering:geometricPrecision; text-rendering:geometricPrecision; image-rendering:optimizeQuality; fill-rule:evenodd; clip-rule:evenodd" xmlns:xlink="http://www.w3.org/1999/xlink">
<g><path style="opacity:0" fill="#e0e9c6" d="M -0.5,-0.5 C 462.833,-0.5 926.167,-0.5 1389.5,-0.5C 1389.5,462.833 1389.5,926.167 1389.5,1389.5C 926.167,1389.5 462.833,1389.5 -0.5,1389.5C -0.5,926.167 -0.5,462.833 -0.5,-0.5 Z"/></g>
<g><path style="opacity:1" fill="#0d3c00" d="M 669.5,55.5 C 674.179,55.3342 678.845,55.5008 683.5,56C 723.207,69.874 751.54,96.0406 768.5,134.5C 788.109,138.425 806.442,145.591 823.5,156C 830.514,160.039 834.18,166.039 834.5,174C 837.02,211.766 827.02,245.766 804.5,276C 804.905,276.945 805.572,277.612 806.5,278C 818.188,281.848 829.855,285.682 841.5,289.5C 843.669,278.165 850.502,271.832 862,270.5C 879.337,272.846 886.004,282.513 882,299.5C 880.7,302.295 879.2,304.961 877.5,307.5C 895.195,317.009 911.862,328.009 927.5,340.5C 933.584,321.964 945.584,316.797 963.5,325C 973.631,333.881 975.131,344.047 968,355.5C 964.477,359.193 960.31,361.859 955.5,363.5C 970.296,377.456 983.796,392.456 996,408.5C 1003.55,393.971 1014.71,390.138 1029.5,397C 1040.77,408.336 1041.44,420.336 1031.5,433C 1027.3,435.455 1022.96,437.621 1018.5,439.5C 1032.52,462.534 1044.68,486.534 1055,511.5C 1064.52,505.428 1074.35,504.928 1084.5,510C 1093.45,518.546 1094.95,528.38 1089,539.5C 1083.06,546.316 1075.56,549.316 1066.5,548.5C 1069.11,560.464 1071.61,572.464 1074,584.5C 1075.5,596.48 1076.66,608.48 1077.5,620.5C 1091.03,617.17 1101.19,621.503 1108,633.5C 1110.54,655.129 1101.04,664.463 1079.5,661.5C 1077.6,672.397 1076.43,683.397 1076,694.5C 1074.04,708.616 1071.54,722.616 1068.5,736.5C 1086.85,736.348 1095.35,745.348 1094,763.5C 1089.43,775.701 1080.6,780.868 1067.5,779C 1064.05,777.774 1060.71,776.274 1057.5,774.5C 1046.61,803.77 1032.95,831.604 1016.5,858C 1042.33,885.256 1051.17,917.423 1043,954.5C 1039.62,969.589 1033.29,983.256 1024,995.5C 1019,1001.17 1014,1006.83 1009,1012.5C 981.624,1131.34 953.624,1250 925,1368.5C 922.667,1371.5 920.333,1374.5 918,1377.5C 915.01,1380.49 911.51,1382.66 907.5,1384C 763.833,1384.67 620.167,1384.67 476.5,1384C 468.596,1380.06 463.096,1373.89 460,1365.5C 433.013,1245.86 406.013,1126.19 379,1006.5C 343.62,977.029 330.953,939.696 341,894.5C 344.105,882.12 349.938,871.286 358.5,862C 360.842,860.829 363.176,859.662 365.5,858.5C 351.455,836.744 339.789,813.744 330.5,789.5C 322.415,789.901 314.415,789.401 306.5,788C 296.11,782.718 291.943,774.218 294,762.5C 297.763,752.564 304.929,747.564 315.5,747.5C 308.551,719.242 304.551,690.575 303.5,661.5C 285.789,665.45 275.789,658.45 273.5,640.5C 275.786,622.678 285.786,615.678 303.5,619.5C 305.604,593.771 309.937,568.438 316.5,543.5C 297.036,544.201 288.536,534.868 291,515.5C 298.841,500.838 310.008,497.671 324.5,506C 325.667,507.167 326.833,508.333 328,509.5C 336.104,488.459 345.937,468.293 357.5,449C 339.095,443.028 333.595,431.195 341,413.5C 354.717,400.671 367.051,402.005 378,417.5C 391.889,398.775 407.389,381.442 424.5,365.5C 411.289,356.657 408.456,345.324 416,331.5C 427.702,320.543 439.035,320.876 450,332.5C 451.368,335.186 452.701,337.853 454,340.5C 468.229,329.633 483.062,319.633 498.5,310.5C 489.668,298.156 490.668,286.656 501.5,276C 512.456,270.328 522.289,271.828 531,280.5C 533.332,283.822 534.498,287.489 534.5,291.5C 547.862,287.045 561.195,282.379 574.5,277.5C 546.703,248.941 534.536,214.941 538,175.5C 542.651,170.57 547.484,165.736 552.5,161C 562.488,156.737 572.821,153.737 583.5,152C 592.256,123.15 608.256,99.1496 631.5,80C 644.341,71.9703 657.008,63.8036 669.5,55.5 Z"/></g>
<g><path style="opacity:1" fill="#e0e9c6" d="M 678.5,100.5 C 696.326,108.083 710.659,119.916 721.5,136C 701.009,140.918 682.009,149.084 664.5,160.5C 653.523,156.089 642.19,152.922 630.5,151C 630.043,150.586 629.709,150.086 629.5,149.5C 640.216,127.451 656.549,111.117 678.5,100.5 Z"/></g>
<g><path style="opacity:1" fill="#e0e9c6" d="M 734.5,176.5 C 754.459,174.549 773.459,177.882 791.5,186.5C 792.008,206.178 787.174,224.512 777,241.5C 771.215,249.621 765.048,257.454 758.5,265C 754.507,265.17 750.507,265.004 746.5,264.5C 740.876,233.914 726.876,207.914 704.5,186.5C 714.144,181.73 724.144,178.397 734.5,176.5 Z"/></g>
<g><path style="opacity:1" fill="#e0e9c6" d="M 701.5,258.5 C 692.167,259.167 682.833,259.833 673.5,260.5C 657.562,261.182 641.729,262.848 626,265.5C 600.381,249.533 584.548,226.7 578.5,197C 621.876,184.72 658.043,195.887 687,230.5C 693.15,239.133 697.983,248.466 701.5,258.5 Z"/></g>
<g><path style="opacity:1" fill="#0d3c00" d="M 701.5,258.5 C 702.043,258.56 702.376,258.893 702.5,259.5C 692.856,260.498 683.19,260.832 673.5,260.5C 682.833,259.833 692.167,259.167 701.5,258.5 Z"/></g>
<g><path style="opacity:1" fill="#e0e9c6" d="M 966.5,854.5 C 942.661,854.831 918.994,854.498 895.5,853.5C 909.009,828.478 920.343,802.478 929.5,775.5C 944.738,782.13 955.571,777.797 962,762.5C 963.334,746.327 955.834,737.66 939.5,736.5C 941.192,723.824 943.025,711.157 945,698.5C 945.934,690.524 946.434,682.524 946.5,674.5C 947.167,672.5 947.833,670.5 948.5,668.5C 969.971,673.201 979.804,664.534 978,642.5C 972.777,631.188 963.944,626.688 951.5,629C 949.919,629.707 948.419,630.54 947,631.5C 945.503,619.521 944.169,607.521 943,595.5C 940.379,581.766 937.545,568.1 934.5,554.5C 945.403,554.307 952.236,548.973 955,538.5C 957.514,526.326 953.348,517.493 942.5,512C 935.229,509.474 928.396,510.308 922,514.5C 913.756,494.678 904.423,475.345 894,456.5C 893.251,455.365 893.417,454.365 894.5,453.5C 910.041,446.092 913.874,434.759 906,419.5C 899.173,412.418 891.006,410.251 881.5,413C 877.44,415.169 873.773,417.502 870.5,420C 833.548,371.369 787.881,333.369 733.5,306C 848.19,322.067 934.69,379.901 993,479.5C 1044.76,576.893 1050.43,676.893 1010,779.5C 998.517,806.496 984.017,831.496 966.5,854.5 Z"/></g>
<g><path style="opacity:1" fill="#e0e9c6" d="M 626.5,307.5 C 628.857,307.337 631.19,307.503 633.5,308C 592.369,331.456 557.035,361.79 527.5,399C 526.833,399.667 526.167,399.667 525.5,399C 518.399,389.412 509.065,386.412 497.5,390C 482.998,400.519 481.665,412.519 493.5,426C 496.795,428.434 500.462,430.101 504.5,431C 490.267,454.3 477.767,478.466 467,503.5C 451.622,497.524 440.955,502.191 435,517.5C 433.329,532.662 439.829,542.329 454.5,546.5C 446.608,576.632 442.608,607.299 442.5,638.5C 427.701,634.814 417.868,640.148 413,654.5C 410.935,669.907 417.435,678.907 432.5,681.5C 436.176,681.572 439.676,680.906 443,679.5C 446.1,704.437 450.6,729.103 456.5,753.5C 447.134,754.106 440.634,758.772 437,767.5C 434.602,784.261 441.769,793.594 458.5,795.5C 462.005,795.599 465.338,794.932 468.5,793.5C 469.442,793.608 470.275,793.941 471,794.5C 479.252,815.003 489.085,834.67 500.5,853.5C 471.839,854.667 443.172,854.833 414.5,854C 368.129,791.886 345.129,721.886 345.5,644C 349.5,525.646 399.167,431.979 494.5,363C 534.929,335.95 578.929,317.45 626.5,307.5 Z"/></g>
<g><path style="opacity:1" fill="#e0e9c6" d="M 668.5,716.5 C 668.166,590.33 667.166,464.33 665.5,338.5C 666.172,337.733 667.005,337.066 668,336.5C 668.5,463.166 668.667,589.833 668.5,716.5 Z"/></g>
<g><path style="opacity:1" fill="#e0e9c6" d="M 665.5,338.5 C 667.166,464.33 668.166,590.33 668.5,716.5C 668.5,762.5 668.5,808.5 668.5,854.5C 629.261,854.83 590.094,854.497 551,853.5C 489.861,764.593 470.861,667.26 494,561.5C 514.948,477.692 560.114,410.525 629.5,360C 641.031,352.067 653.031,344.9 665.5,338.5 Z"/></g>
<g><path style="opacity:1" fill="#e0e9c6" d="M 712.5,343.5 C 755.135,363.276 791.635,391.276 822,427.5C 894.004,516.852 919.004,618.186 897,731.5C 887.208,775.402 870.041,816.069 845.5,853.5C 800.838,854.5 756.172,854.833 711.5,854.5C 711.169,826.662 711.502,798.995 712.5,771.5C 731.401,778.763 742.401,772.43 745.5,752.5C 743.004,737.843 734.338,731.343 719.5,733C 716.69,733.906 714.024,735.073 711.5,736.5C 711.169,710.661 711.502,684.995 712.5,659.5C 724.621,665.308 734.788,662.975 743,652.5C 749.012,634.189 742.512,623.522 723.5,620.5C 719.117,620.85 715.117,622.183 711.5,624.5C 711.169,599.661 711.502,574.994 712.5,550.5C 736.284,552.885 745.118,542.552 739,519.5C 732.401,510.244 723.567,507.244 712.5,510.5C 711.503,492.674 711.17,474.674 711.5,456.5C 723.08,457.138 730.913,452.138 735,441.5C 737.692,426.87 731.859,417.87 717.5,414.5C 715.735,413.539 713.735,413.205 711.5,413.5C 711.169,389.994 711.502,366.661 712.5,343.5 Z"/></g>
<g><path style="opacity:1" fill="#e0e9c6" d="M 712.5,343.5 C 711.502,366.661 711.169,389.994 711.5,413.5C 713.735,413.205 715.735,413.539 717.5,414.5C 715.167,414.5 712.833,414.5 710.5,414.5C 710.167,390.491 710.5,366.491 711.5,342.5C 712.107,342.624 712.44,342.957 712.5,343.5 Z"/></g>
<g><path style="opacity:1" fill="#e0e9c6" d="M 711.5,456.5 C 711.17,474.674 711.503,492.674 712.5,510.5C 712.44,511.043 712.107,511.376 711.5,511.5C 710.173,493.004 710.173,474.671 711.5,456.5 Z"/></g>
<g><path style="opacity:1" fill="#e0e9c6" d="M 712.5,550.5 C 711.502,574.994 711.169,599.661 711.5,624.5C 710.824,612.907 710.491,600.574 710.5,587.5C 710.833,574.833 711.167,562.167 711.5,549.5C 712.107,549.624 712.44,549.957 712.5,550.5 Z"/></g>
<g><path style="opacity:1" fill="#e0e9c6" d="M 712.5,659.5 C 711.502,684.995 711.169,710.661 711.5,736.5C 710.824,724.407 710.491,711.574 710.5,698C 710.833,684.833 711.167,671.667 711.5,658.5C 712.107,658.624 712.44,658.957 712.5,659.5 Z"/></g>
<g><path style="opacity:1" fill="#0d3c00" d="M 948.5,668.5 C 947.833,670.5 947.167,672.5 946.5,674.5C 946.192,672.076 946.526,669.743 947.5,667.5C 948.107,667.624 948.44,667.957 948.5,668.5 Z"/></g>
<g><path style="opacity:1" fill="#e0e9c6" d="M 712.5,771.5 C 711.502,798.995 711.169,826.662 711.5,854.5C 710.171,826.664 710.171,798.664 711.5,770.5C 712.107,770.624 712.44,770.957 712.5,771.5 Z"/></g>
<g><path style="opacity:1" fill="#e0e9c6" d="M 895.5,853.5 C 918.994,854.498 942.661,854.831 966.5,854.5C 942.663,855.829 918.663,855.829 894.5,854.5C 894.624,853.893 894.957,853.56 895.5,853.5 Z"/></g>
<g><path style="opacity:1" fill="#e0e9c6" d="M 384.5,897.5 C 587.834,897.167 791.168,897.5 994.5,898.5C 1007.87,923.972 1006.04,948.306 989,971.5C 984.634,976.201 979.967,980.534 975,984.5C 973.065,987.371 971.399,990.371 970,993.5C 943.46,1109.66 916.294,1225.66 888.5,1341.5C 758.168,1342.5 627.835,1342.83 497.5,1342.5C 471.55,1224.81 445.384,1107.14 419,989.5C 416.934,980.838 411.768,975.004 403.5,972C 380.97,951.383 374.637,926.549 384.5,897.5 Z"/></g>
<g><path style="opacity:1" fill="#0d3c00" d="M 456.5,971.5 C 518.834,971.333 581.168,971.5 643.5,972C 654.865,976.228 660.032,984.395 659,996.5C 656.719,1005.78 650.886,1011.28 641.5,1013C 579.5,1013.67 517.5,1013.67 455.5,1013C 441.024,1005.93 437.19,995.093 444,980.5C 447.346,976.102 451.512,973.102 456.5,971.5 Z"/></g>
<g><path style="opacity:1" fill="#0d3c00" d="M 685.5,973.5 C 694.839,973.334 704.173,973.5 713.5,974C 729.851,982.052 733.018,993.885 723,1009.5C 720.125,1012.46 716.625,1014.3 712.5,1015C 703.5,1015.67 694.5,1015.67 685.5,1015C 671.336,1007.84 667.503,997.009 674,982.5C 677.183,978.462 681.016,975.462 685.5,973.5 Z"/></g>
</svg>
