<?xml version="1.0" encoding="UTF-8"?>
<!DOCTYPE svg PUBLIC "-//W3C//DTD SVG 1.1//EN" "http://www.w3.org/Graphics/SVG/1.1/DTD/svg11.dtd">
<svg xmlns="http://www.w3.org/2000/svg" version="1.1" width="1390px" height="1390px" style="shape-rendering:geometricPrecision; text-rendering:geometricPrecision; image-rendering:optimizeQuality; fill-rule:evenodd; clip-rule:evenodd" xmlns:xlink="http://www.w3.org/1999/xlink">
<g><path style="opacity:0" fill="#fefefe" d="M -0.5,-0.5 C 462.833,-0.5 926.167,-0.5 1389.5,-0.5C 1389.5,462.833 1389.5,926.167 1389.5,1389.5C 926.167,1389.5 462.833,1389.5 -0.5,1389.5C -0.5,926.167 -0.5,462.833 -0.5,-0.5 Z"/></g>
<g><path style="opacity:1" fill="#0d3c00" d="M 784.5,629.5 C 784.491,631.308 784.991,632.975 786,634.5C 786.498,631.183 786.665,627.85 786.5,624.5C 787.632,580.624 780.132,538.29 764,497.5C 763.003,489.799 763.836,482.299 766.5,475C 754.032,468.562 749.199,458.395 752,444.5C 757.917,431.409 767.751,427.242 781.5,432C 787.07,434.943 790.903,439.443 793,445.5C 793.455,451.596 793.122,457.596 792,463.5C 848.664,498.803 890.997,546.803 919,607.5C 923.529,618.086 927.862,628.753 932,639.5C 944.195,605.305 950.362,569.971 950.5,533.5C 950.041,523.493 949.875,513.493 950,503.5C 951.826,498.517 954.659,494.183 958.5,490.5C 950.343,484.168 947.176,475.835 949,465.5C 956.653,450.727 967.82,447.227 982.5,455C 991.376,463.621 992.876,473.454 987,484.5C 985.5,486 984,487.5 982.5,489C 985.5,490.667 988.5,492.333 991.5,494C 1059.63,572.404 1088.46,663.571 1078,767.5C 1072.38,812.189 1059.21,854.522 1038.5,894.5C 1050.71,927.255 1048.21,958.921 1031,989.5C 1024.38,999.051 1017.05,1008.05 1009,1016.5C 981.65,1134.57 953.983,1252.57 926,1370.5C 922.082,1378.75 915.916,1384.59 907.5,1388C 764.167,1388.67 620.833,1388.67 477.5,1388C 468.177,1383.67 462.01,1376.5 459,1366.5C 432.642,1247.74 405.976,1129.07 379,1010.5C 348.025,985.282 334.359,952.615 338,912.5C 339.231,904.244 341.397,896.244 344.5,888.5C 300.737,831.84 280.57,767.506 284,695.5C 289.416,633.704 312.082,579.371 352,532.5C 356.699,527.466 361.699,522.8 367,518.5C 364.06,507.492 366.894,498.325 375.5,491C 390.009,484.503 400.842,488.336 408,502.5C 409.894,513.213 406.394,521.713 397.5,528C 398.327,548.427 398.827,568.927 399,589.5C 400.682,604.941 403.015,620.274 406,635.5C 431.181,561.927 476.348,504.094 541.5,462C 544.168,461.433 546.834,460.933 549.5,460.5C 550.342,447.117 557.342,439.45 570.5,437.5C 590.155,441.667 595.988,453 588,471.5C 585.151,475.357 581.485,478.023 577,479.5C 576.202,482.893 575.202,486.226 574,489.5C 530.249,576.81 527.082,665.477 564.5,755.5C 604.349,707.095 627.182,651.428 633,588.5C 638.19,534.642 629.857,482.975 608,433.5C 607.149,427.547 607.649,421.714 609.5,416C 602.942,412.442 598.109,407.276 595,400.5C 593.008,381.493 601.508,372.66 620.5,374C 633.633,379.095 638.799,388.595 636,402.5C 669.743,423.572 698.41,450.238 722,482.5C 753.997,526.63 774.831,575.63 784.5,629.5 Z"/></g>
<g><path style="opacity:1" fill="#e0e9c6" d="M 669.5,486.5 C 712.997,534.73 738.497,591.396 746,656.5C 748.438,684.247 747.771,711.914 744,739.5C 740.652,755.928 736.985,772.262 733,788.5C 724.54,801.74 714.873,814.074 704,825.5C 692.466,836.702 680.633,847.535 668.5,858C 657.833,858.667 647.167,858.667 636.5,858C 616.216,839.724 598.883,819.057 584.5,796C 612.926,767.031 634.759,733.531 650,695.5C 676.841,627.749 683.341,558.082 669.5,486.5 Z"/></g>
<g><path style="opacity:1" fill="#e0e9c6" d="M 821.5,540.5 C 877.942,598.767 906.942,668.767 908.5,750.5C 909.257,787.203 903.59,822.87 891.5,857.5C 838.17,858.667 784.836,858.833 731.5,858C 804.11,779.177 835.944,686.011 827,578.5C 825.801,565.716 823.968,553.049 821.5,540.5 Z"/></g>
<g><path style="opacity:1" fill="#e0e9c6" d="M 506.5,545.5 C 484.02,644.955 499.52,738.289 553,825.5C 560.559,836.781 568.726,847.615 577.5,858C 572.833,858.667 568.167,858.667 563.5,858C 518.848,830.683 482.015,795.183 453,751.5C 444.719,737.94 437.219,723.94 430.5,709.5C 440.287,647.279 465.621,592.612 506.5,545.5 Z"/></g>
<g><path style="opacity:1" fill="#e0e9c6" d="M 999.5,859.5 C 978.5,858.833 957.5,858.167 936.5,857.5C 946.55,823.244 951.55,788.244 951.5,752.5C 950.796,736.804 949.963,721.138 949,705.5C 973.014,661.458 987.347,614.458 992,564.5C 1042.38,650.268 1051.38,740.268 1019,834.5C 1015.99,843.037 1012.49,851.37 1008.5,859.5C 1005.53,860.509 1002.53,860.509 999.5,859.5 Z"/></g>
<g><path style="opacity:1" fill="#e0e9c6" d="M 491.5,857.5 C 453.833,858.167 416.167,858.833 378.5,859.5C 376.097,859.607 374.264,858.607 373,856.5C 331.923,799.341 317.923,736.008 331,666.5C 336.127,642.448 344.794,619.782 357,598.5C 366.986,696.632 407.486,779.465 478.5,847C 482.708,850.713 487.041,854.213 491.5,857.5 Z"/></g>
<g><path style="opacity:1" fill="#0d3c00" d="M 786.5,624.5 C 786.665,627.85 786.498,631.183 786,634.5C 784.991,632.975 784.491,631.308 784.5,629.5C 785.167,627.833 785.833,626.167 786.5,624.5 Z"/></g>
<g><path style="opacity:1" fill="#0d3c00" d="M 491.5,857.5 C 492.043,857.56 492.376,857.893 492.5,858.5C 454.506,859.5 416.506,859.833 378.5,859.5C 416.167,858.833 453.833,858.167 491.5,857.5 Z"/></g>
<g><path style="opacity:1" fill="#0d3c00" d="M 936.5,857.5 C 957.5,858.167 978.5,858.833 999.5,859.5C 978.156,859.833 956.823,859.5 935.5,858.5C 935.624,857.893 935.957,857.56 936.5,857.5 Z"/></g>
<g><path style="opacity:1" fill="#e0e9c6" d="M 385.5,901.5 C 588.501,901.167 791.501,901.5 994.5,902.5C 1007.13,925.925 1006.29,948.925 992,971.5C 986.667,978.167 980.667,984.167 974,989.5C 972.139,991.888 970.806,994.554 970,997.5C 943.46,1113.66 916.294,1229.66 888.5,1345.5C 758.168,1346.5 627.835,1346.83 497.5,1346.5C 471.535,1227.71 445.035,1109.04 418,990.5C 417.194,987.554 415.861,984.888 414,982.5C 389.273,968.054 377.94,946.387 380,917.5C 381.152,911.855 382.986,906.522 385.5,901.5 Z"/></g>
<g><path style="opacity:1" fill="#0d3c00" d="M 454.5,975.5 C 516.834,975.333 579.168,975.5 641.5,976C 657.077,980.319 662.244,990.153 657,1005.5C 654.201,1011.83 649.368,1015.66 642.5,1017C 580.167,1017.67 517.833,1017.67 455.5,1017C 441.935,1010.32 437.769,999.816 443,985.5C 446.435,981.555 450.268,978.222 454.5,975.5 Z"/></g>
<g><path style="opacity:1" fill="#0d3c00" d="M 685.5,977.5 C 694.173,977.334 702.84,977.5 711.5,978C 725.108,981.636 730.608,990.47 728,1004.5C 725.702,1012.4 720.536,1017.23 712.5,1019C 703.5,1019.67 694.5,1019.67 685.5,1019C 674.047,1014.26 669.214,1005.76 671,993.5C 673.626,986.046 678.46,980.712 685.5,977.5 Z"/></g>
</svg>
